<svg width="27" height="19" viewBox="0 0 27 19" fill="none" xmlns="http://www.w3.org/2000/svg">
<path d="M11.3333 13.3333C11.3333 14.9902 9.31859 16.3333 6.83331 16.3333C4.34803 16.3333 2.33331 14.9902 2.33331 13.3333C2.33331 11.6765 4.34803 10.3333 6.83331 10.3333C9.31859 10.3333 11.3333 11.6765 11.3333 13.3333Z" fill="#D9D9D9"/>
<path d="M24.3333 12.3333C24.3333 15.0948 22.0947 17.3333 19.3333 17.3333C16.5719 17.3333 14.3333 15.0948 14.3333 12.3333C14.3333 9.57192 16.5719 7.33334 19.3333 7.33334C22.0947 7.33334 24.3333 9.57192 24.3333 12.3333Z" fill="#D9D9D9"/>
<path d="M19.3333 9.83334C19.3333 13.9755 16.1993 17.3333 12.3333 17.3333C8.46732 17.3333 5.33331 13.9755 5.33331 9.83334C5.33331 5.69121 8.46732 2.33334 12.3333 2.33334C16.1993 2.33334 19.3333 5.69121 19.3333 9.83334Z" fill="#D9D9D9"/>
<path d="M20 18.6667H5.33333C2.392 18.6667 0 16.2747 0 13.3333C0.00137564 12.151 0.394937 11.0024 1.11903 10.0677C1.84312 9.13299 2.85682 8.46486 4.00133 8.16801L4 8.00001C4 3.58801 7.588 1.09235e-05 12 1.09235e-05C13.6567 -0.0027331 15.2729 0.511569 16.6233 1.4712C17.9737 2.43084 18.991 3.78796 19.5333 5.35334C23.456 5.02534 26.6667 8.17068 26.6667 12C26.6667 15.676 23.676 18.6667 20 18.6667ZM5.20667 10.6587C3.86267 10.6667 2.66667 11.8627 2.66667 13.3333C2.66667 14.804 3.86267 16 5.33333 16H20C22.2053 16 24 14.2053 24 12C24 9.79468 22.2053 8.00001 20 8.00001C19.676 8.00001 19.3333 8.05468 18.92 8.17334L17.4867 8.58268L17.2387 7.11201C17.0349 5.86996 16.3961 4.74085 15.4364 3.92648C14.4767 3.11212 13.2587 2.66558 12 2.66668C11.2081 2.66744 10.4262 2.84437 9.71113 3.18466C8.99603 3.52494 8.3656 4.02006 7.86551 4.63412C7.36543 5.24819 7.00822 5.96582 6.81978 6.735C6.63134 7.50419 6.61639 8.30566 6.776 9.08134L7.10133 10.68L5.20667 10.6587Z" fill="#959595"/>
</svg>
