<svg width="27" height="26" viewBox="0 0 27 26" fill="none" xmlns="http://www.w3.org/2000/svg">
<path d="M21.7239 7.05721C21.9739 6.80716 22.3131 6.66669 22.6667 6.66669C24.872 6.66669 26.6667 8.46135 26.6667 10.6667C26.6667 12.872 24.872 14.6667 22.6667 14.6667H19.7534C19.904 15.0854 20 15.5294 20 16C20 18.2054 18.2054 20 16 20H9.33337C8.97975 20 8.64061 20.1405 8.39057 20.3905C8.14052 20.6406 8.00004 20.9797 8.00004 21.3334C8.00004 21.687 8.14052 22.0261 8.39057 22.2762C8.64061 22.5262 8.97975 22.6667 9.33337 22.6667C9.687 22.6667 10.0261 22.8072 10.2762 23.0572C10.5262 23.3073 10.6667 23.6464 10.6667 24C10.6667 24.3536 10.5262 24.6928 10.2762 24.9428C10.0261 25.1929 9.687 25.3334 9.33337 25.3334C7.12804 25.3334 5.33337 23.5387 5.33337 21.3334C5.33337 19.128 7.12804 17.3334 9.33337 17.3334H16C16.3537 17.3334 16.6928 17.1929 16.9429 16.9428C17.1929 16.6928 17.3334 16.3536 17.3334 16C17.3334 15.6464 17.1929 15.3073 16.9429 15.0572C16.6928 14.8072 16.3537 14.6667 16 14.6667H9.86671C9.51309 14.6667 9.17395 14.5262 8.9239 14.2762C8.67385 14.0261 8.53337 13.687 8.53337 13.3334C8.53337 12.9797 8.67385 12.6406 8.9239 12.3905C9.17395 12.1405 9.51309 12 9.86671 12H22.6667C23.0203 12 23.3595 11.8595 23.6095 11.6095C23.8596 11.3594 24 11.0203 24 10.6667C24 10.3131 23.8596 9.97393 23.6095 9.72388C23.3595 9.47383 23.0203 9.33335 22.6667 9.33335C22.3131 9.33335 21.9739 9.19288 21.7239 8.94283C21.4739 8.69278 21.3334 8.35364 21.3334 8.00002C21.3334 7.6464 21.4739 7.30726 21.7239 7.05721Z" fill="#D9D9D9"/>
<path d="M3.73067 18.3333C3.54698 18.334 3.36524 18.2958 3.19733 18.2213C2.24715 17.8053 1.43874 17.1214 0.870923 16.2534C0.303104 15.3853 0.000467175 14.3706 0 13.3333C0.00137564 12.151 0.394937 11.0024 1.11903 10.0677C1.84312 9.13298 2.85682 8.46486 4.00133 8.16801L4 8.00001C4 3.58801 7.588 6.74217e-06 12 6.74217e-06C13.8894 -0.00245045 15.7182 0.66681 17.1597 1.88826C18.6012 3.10972 19.5616 4.80382 19.8693 6.66801C19.928 7.01667 19.8458 7.37436 19.6407 7.6624C19.4357 7.95045 19.1247 8.14526 18.776 8.20401C18.4277 8.26013 18.0713 8.17689 17.7838 7.97229C17.4964 7.76769 17.301 7.45817 17.24 7.11067C17.0354 5.86887 16.3961 4.7402 15.4363 3.92617C14.4765 3.11214 13.2585 2.66574 12 2.66667C11.2078 2.66719 10.4257 2.844 9.7103 3.18428C8.99493 3.52456 8.36424 4.01978 7.86398 4.63402C7.36373 5.24827 7.00644 5.96615 6.81803 6.7356C6.62962 7.50505 6.61481 8.30679 6.77467 9.08267L7.12 10.776L5.212 10.6587C3.86267 10.6667 2.66667 11.8627 2.66667 13.3333C2.66667 14.3933 3.29467 15.3533 4.26667 15.7787C4.54721 15.9015 4.7769 16.1172 4.91713 16.3895C5.05736 16.6618 5.09957 16.9741 5.03668 17.2738C4.97379 17.5735 4.80963 17.8425 4.57179 18.0354C4.33395 18.2284 4.03693 18.3336 3.73067 18.3333Z" fill="#959595"/>
</svg>
