<svg width="24" height="19" viewBox="0 0 24 19" fill="none" xmlns="http://www.w3.org/2000/svg">
<path d="M19.2 0C18.8464 0 18.5072 0.140476 18.2572 0.390525C18.0071 0.640573 17.8667 0.979711 17.8667 1.33333C17.8667 1.68696 18.0071 2.02609 18.2572 2.27614C18.5072 2.52619 18.8464 2.66667 19.2 2.66667C19.5536 2.66667 19.8928 2.80714 20.1428 3.05719C20.3929 3.30724 20.5333 3.64638 20.5333 4C20.5333 4.35362 20.3929 4.69276 20.1428 4.94281C19.8928 5.19286 19.5536 5.33333 19.2 5.33333H4.53333C4.17971 5.33333 3.84057 5.47381 3.59052 5.72386C3.34048 5.97391 3.2 6.31305 3.2 6.66667C3.2 7.02029 3.34048 7.35943 3.59052 7.60948C3.84057 7.85952 4.17971 8 4.53333 8H12.5333C12.887 8 13.2261 8.14048 13.4761 8.39052C13.7262 8.64057 13.8667 8.97971 13.8667 9.33333C13.8667 9.68696 13.7262 10.0261 13.4761 10.2761C13.2261 10.5262 12.887 10.6667 12.5333 10.6667H4C1.79467 10.6667 0 12.4613 0 14.6667C0 16.872 1.79467 18.6667 4 18.6667C4.35362 18.6667 4.69276 18.5262 4.94281 18.2761C5.19286 18.0261 5.33333 17.687 5.33333 17.3333C5.33333 16.9797 5.19286 16.6406 4.94281 16.3905C4.69276 16.1405 4.35362 16 4 16C3.64638 16 3.30724 15.8595 3.05719 15.6095C2.80714 15.3594 2.66667 15.0203 2.66667 14.6667C2.66667 14.313 2.80714 13.9739 3.05719 13.7239C3.30724 13.4738 3.64638 13.3333 4 13.3333H12.5333C14.7387 13.3333 16.5333 11.5387 16.5333 9.33333C16.5333 8.86267 16.4373 8.41867 16.2867 8H19.2C21.4053 8 23.2 6.20533 23.2 4C23.2 1.79467 21.4053 0 19.2 0Z" fill="#D9D9D9"/>
</svg>
