<svg width="27" height="24" viewBox="0 0 27 24" fill="none" xmlns="http://www.w3.org/2000/svg">
<path d="M10.7424 13.6667C10.7424 15.3235 8.63611 16.6667 6.03786 16.6667C3.43961 16.6667 1.33331 15.3235 1.33331 13.6667C1.33331 12.0098 3.43961 10.6667 6.03786 10.6667C8.63611 10.6667 10.7424 12.0098 10.7424 13.6667Z" fill="#D9D9D9"/>
<path d="M24.3333 12.6667C24.3333 15.4281 21.993 17.6667 19.106 17.6667C16.2191 17.6667 13.8788 15.4281 13.8788 12.6667C13.8788 9.90526 16.2191 7.66669 19.106 7.66669C21.993 7.66669 24.3333 9.90526 24.3333 12.6667Z" fill="#D9D9D9"/>
<path d="M19.106 10.1667C19.106 14.3088 15.8296 17.6667 11.7879 17.6667C7.74614 17.6667 4.46968 14.3088 4.46968 10.1667C4.46968 6.02455 7.74614 2.66669 11.7879 2.66669C15.8296 2.66669 19.106 6.02455 19.106 10.1667Z" fill="#D9D9D9"/>
<path d="M12.6667 14.6667L11.3334 18.6667C11.2638 18.8776 11.2452 19.102 11.2793 19.3215C11.3133 19.541 11.3989 19.7492 11.529 19.9292C11.6591 20.1092 11.8301 20.2557 12.0279 20.3568C12.2257 20.4578 12.4446 20.5105 12.6667 20.5105C12.8888 20.5105 13.1077 20.4578 13.3055 20.3568C13.5033 20.2557 13.6743 20.1092 13.8044 19.9292C13.9345 19.7492 14.0201 19.541 14.0541 19.3215C14.0881 19.102 14.0696 18.8776 14 18.6667L12.6667 14.6667Z" fill="#568ABA"/>
<path d="M16.6667 17.3334L15.3334 21.3334C15.2638 21.5443 15.2452 21.7687 15.2793 21.9882C15.3133 22.2076 15.3989 22.4159 15.529 22.5959C15.6591 22.7759 15.8301 22.9224 16.0279 23.0234C16.2257 23.1245 16.4446 23.1772 16.6667 23.1772C16.8888 23.1772 17.1077 23.1245 17.3055 23.0234C17.5033 22.9224 17.6743 22.7759 17.8044 22.5959C17.9345 22.4159 18.0201 22.2076 18.0541 21.9882C18.0881 21.7687 18.0696 21.5443 18 21.3334L16.6667 17.3334Z" fill="#568ABA"/>
<path d="M8.6667 17.3334L7.33336 21.3334C7.26379 21.5443 7.24524 21.7687 7.27925 21.9882C7.31326 22.2076 7.39885 22.4159 7.529 22.5959C7.65914 22.7759 7.83012 22.9224 8.0279 23.0234C8.22567 23.1245 8.4446 23.1772 8.6667 23.1772C8.88879 23.1772 9.10772 23.1245 9.30549 23.0234C9.50327 22.9224 9.67425 22.7759 9.8044 22.5959C9.93454 22.4159 10.0201 22.2076 10.0541 21.9882C10.0881 21.7687 10.0696 21.5443 10 21.3334L8.6667 17.3334Z" fill="#568ABA"/>
<path d="M20 18.6667C19.6464 18.6667 19.3072 18.5262 19.0572 18.2762C18.8071 18.0261 18.6667 17.687 18.6667 17.3333C18.6667 16.9797 18.8071 16.6406 19.0572 16.3905C19.3072 16.1405 19.6464 16 20 16C22.2053 16 24 14.2053 24 12C24 9.79468 22.2053 8.00001 20 8.00001C19.676 8.00001 19.3333 8.05468 18.92 8.17334L17.4867 8.58268L17.24 7.11201C17.0357 5.86996 16.3965 4.74098 15.4367 3.92668C14.4768 3.11239 13.2587 2.6658 12 2.66668C11.2081 2.66744 10.4262 2.84437 9.71113 3.18466C8.99603 3.52494 8.3656 4.02006 7.86551 4.63412C7.36543 5.24819 7.00822 5.96582 6.81978 6.735C6.63134 7.50419 6.61639 8.30566 6.776 9.08134L7.10133 10.68L5.208 10.6587C3.86267 10.6667 2.66667 11.8627 2.66667 13.3333C2.66667 14.804 3.86267 16 5.33333 16C5.68696 16 6.02609 16.1405 6.27614 16.3905C6.52619 16.6406 6.66667 16.9797 6.66667 17.3333C6.66667 17.687 6.52619 18.0261 6.27614 18.2762C6.02609 18.5262 5.68696 18.6667 5.33333 18.6667C2.392 18.6667 0 16.2747 0 13.3333C0.00137564 12.151 0.394937 11.0024 1.11903 10.0677C1.84312 9.13299 2.85682 8.46486 4.00133 8.16801L4 8.00001C4 3.58801 7.588 1.09235e-05 12 1.09235e-05C13.6567 -0.0027331 15.2729 0.511569 16.6233 1.4712C17.9737 2.43084 18.991 3.78796 19.5333 5.35334C23.452 5.02801 26.6667 8.17068 26.6667 12C26.6667 15.676 23.676 18.6667 20 18.6667Z" fill="#959595"/>
</svg>
