<svg width="18" height="20" viewBox="0 0 18 20" fill="none" xmlns="http://www.w3.org/2000/svg">
<path d="M6.7205 2.25958C7.98256 1.9199 9.30662 1.90746 10.5798 2.22332C11.853 2.53918 13.0375 3.17397 14.0325 4.07358C15.0274 4.97319 15.8032 6.11094 16.2937 7.38982C16.7842 8.6687 16.9749 10.0508 16.8495 11.4182C16.7241 12.7857 16.2864 14.098 15.5736 15.2432C14.8608 16.3885 13.8941 17.3327 12.756 17.9954C11.6178 18.6581 10.3419 19.0196 9.03704 19.0491C7.73218 19.0786 6.43708 18.7753 5.26213 18.1649L8.79072 10.5232L6.7205 2.25958Z" fill="#F8D198"/>
<path d="M8 20C6.852 20 5.72 19.7987 4.636 19.3987L2.88 18.752L4.06666 17.3027C5.76666 15.2227 6.66666 12.6973 6.66666 10C6.66666 7.30267 5.76666 4.77733 4.06533 2.69733L2.87866 1.248L4.63466 0.601334C5.71199 0.203234 6.85146 -0.00037251 8 5.11624e-07C13.5147 5.11624e-07 18 4.48533 18 10C18 15.5147 13.5147 20 8 20ZM7.32133 17.3013C8.33686 17.3943 9.36062 17.2747 10.3274 16.9502C11.2941 16.6256 12.1827 16.1033 12.9364 15.4164C13.6902 14.7295 14.2926 13.8932 14.7053 12.9606C15.1179 12.0281 15.3318 11.0198 15.3333 10C15.3318 8.98023 15.1179 7.97194 14.7053 7.0394C14.2926 6.10685 13.6902 5.27049 12.9364 4.5836C12.1827 3.89671 11.2941 3.37436 10.3274 3.04983C9.36062 2.7253 8.33686 2.60571 7.32133 2.69867C8.64266 4.892 9.33333 7.38 9.33333 10C9.33333 12.62 8.64266 15.108 7.32133 17.3013Z" fill="#F8D198"/>
</svg>
