<svg width="27" height="27" viewBox="0 0 27 27" fill="none" xmlns="http://www.w3.org/2000/svg">
<path d="M10.7425 13.6667C10.7425 15.3235 8.63617 16.6667 6.03792 16.6667C3.43967 16.6667 1.33337 15.3235 1.33337 13.6667C1.33337 12.0098 3.43967 10.6667 6.03792 10.6667C8.63617 10.6667 10.7425 12.0098 10.7425 13.6667Z" fill="#D9D9D9"/>
<path d="M24.3334 12.6667C24.3334 15.4281 21.993 17.6667 19.1061 17.6667C16.2192 17.6667 13.8788 15.4281 13.8788 12.6667C13.8788 9.90526 16.2192 7.66669 19.1061 7.66669C21.993 7.66669 24.3334 9.90526 24.3334 12.6667Z" fill="#D9D9D9"/>
<path d="M19.1061 10.1667C19.1061 14.3088 15.8296 17.6667 11.7879 17.6667C7.7462 17.6667 4.46974 14.3088 4.46974 10.1667C4.46974 6.02455 7.7462 2.66669 11.7879 2.66669C15.8296 2.66669 19.1061 6.02455 19.1061 10.1667Z" fill="#D9D9D9"/>
<path d="M16.3905 23.6095C16.6406 23.8595 16.9797 24 17.3333 24C17.687 24 18.0261 23.8595 18.2761 23.6095C18.5262 23.3594 18.6667 23.0203 18.6667 22.6667V14.6667C18.6667 14.3131 18.5262 13.9739 18.2761 13.7239C18.0261 13.4738 17.687 13.3333 17.3333 13.3333C16.9797 13.3333 16.6406 13.4738 16.3905 13.7239C16.1405 13.9739 16 14.3131 16 14.6667V22.6667C16 23.0203 16.1405 23.3594 16.3905 23.6095Z" fill="#568ABA"/>
<path d="M8.39052 23.6095C8.64057 23.8595 8.97971 24 9.33333 24C9.68696 24 10.0261 23.8595 10.2761 23.6095C10.5262 23.3594 10.6667 23.0203 10.6667 22.6667V14.6667C10.6667 14.3131 10.5262 13.9739 10.2761 13.7239C10.0261 13.4738 9.68696 13.3333 9.33333 13.3333C8.97971 13.3333 8.64057 13.4738 8.39052 13.7239C8.14048 13.9739 8 14.3131 8 14.6667V22.6667C8 23.0203 8.14048 23.3594 8.39052 23.6095Z" fill="#568ABA"/>
<path d="M12.3905 26.2762C12.6406 26.5262 12.9797 26.6667 13.3333 26.6667C13.687 26.6667 14.0261 26.5262 14.2761 26.2762C14.5262 26.0261 14.6667 25.687 14.6667 25.3333V17.3333C14.6667 16.9797 14.5262 16.6406 14.2761 16.3905C14.0261 16.1405 13.687 16 13.3333 16C12.9797 16 12.6406 16.1405 12.3905 16.3905C12.1405 16.6406 12 16.9797 12 17.3333V25.3333C12 25.687 12.1405 26.0261 12.3905 26.2762Z" fill="#568ABA"/>
<path d="M5.33333 18.6667C2.392 18.6667 0 16.2747 0 13.3333C0.00137564 12.151 0.394937 11.0024 1.11903 10.0677C1.84312 9.13298 2.85682 8.46486 4.00133 8.16801L4 8.00001C4 3.58801 7.588 9.4064e-06 12 9.4064e-06C13.6566 -0.00253666 15.2727 0.511843 16.6231 1.47145C17.9735 2.43106 18.9908 3.78807 19.5333 5.35334C23.448 5.02801 26.6667 8.17068 26.6667 12C26.6643 13.4576 26.1854 14.8744 25.3029 16.0344C24.4204 17.1945 23.1828 18.0341 21.7787 18.4253C21.6081 18.478 21.4288 18.4959 21.2512 18.478C21.0736 18.46 20.9014 18.4066 20.7449 18.3209C20.5883 18.2352 20.4506 18.1189 20.3398 17.979C20.229 17.839 20.1474 17.6783 20.0999 17.5062C20.0524 17.3342 20.04 17.1543 20.0633 16.9774C20.0866 16.8004 20.1451 16.6299 20.2355 16.476C20.326 16.3221 20.4463 16.188 20.5896 16.0815C20.7328 15.975 20.8959 15.8983 21.0693 15.856C21.9114 15.6206 22.6534 15.1164 23.1824 14.4203C23.7115 13.7242 23.9986 12.8743 24 12C24 9.79468 22.2053 8.00001 20 8.00001C19.6773 8.00001 19.3347 8.05468 18.9187 8.17334L17.4867 8.58134L17.24 7.11201C17.0357 5.86996 16.3965 4.74098 15.4367 3.92668C14.4768 3.11239 13.2587 2.6658 12 2.66668C11.2085 2.66756 10.4271 2.84442 9.71231 3.18448C8.99757 3.52454 8.36738 4.01927 7.86737 4.63286C7.36736 5.24645 7.01004 5.96354 6.82129 6.73223C6.63253 7.50091 6.61706 8.30195 6.776 9.07734L7.10667 10.68L5.21067 10.6587C3.86267 10.6667 2.66667 11.8627 2.66667 13.3333C2.66667 14.804 3.86267 16 5.33333 16C5.68696 16 6.02609 16.1405 6.27614 16.3905C6.52619 16.6406 6.66667 16.9797 6.66667 17.3333C6.66667 17.687 6.52619 18.0261 6.27614 18.2762C6.02609 18.5262 5.68696 18.6667 5.33333 18.6667Z" fill="#959595"/>
</svg>
