<svg width="23" height="26" viewBox="0 0 23 26" fill="none" xmlns="http://www.w3.org/2000/svg">
<path d="M20.9331 16.6891L17.6571 16.0185L19.6345 15.4905C19.8036 15.4451 19.9622 15.3669 20.1011 15.2603C20.24 15.1537 20.3565 15.0207 20.4441 14.869C20.5316 14.7174 20.5884 14.55 20.6112 14.3763C20.6341 14.2027 20.6225 14.0263 20.5771 13.8572C20.5318 13.688 20.4536 13.5295 20.3469 13.3905C20.2403 13.2516 20.1074 13.1351 19.9557 13.0475C19.804 12.96 19.6366 12.9032 19.463 12.8804C19.2894 12.8575 19.1129 12.8691 18.9438 12.9145L16.9331 13.4518C16.9825 13.1438 17.0278 12.8331 17.0278 12.5105C17.0278 12.1878 16.9825 11.8758 16.9331 11.5678L18.9465 12.1065L19.2931 12.1518C19.6166 12.1516 19.9289 12.0339 20.172 11.8205C20.4151 11.6071 20.5723 11.3127 20.6144 10.992C20.6565 10.6713 20.5806 10.3462 20.4008 10.0773C20.221 9.80846 19.9496 9.61411 19.6371 9.53048L17.6598 9.00115L20.9331 8.33182C21.1513 8.28713 21.3556 8.19126 21.5294 8.0521C21.7033 7.91294 21.8415 7.73447 21.9328 7.5314C22.0241 7.32833 22.0659 7.10647 22.0546 6.8841C22.0434 6.66173 21.9795 6.44521 21.8681 6.25239C21.7568 6.05957 21.6013 5.89596 21.4143 5.77504C21.2273 5.65412 21.0143 5.57936 20.7928 5.5569C20.5713 5.53445 20.3476 5.56496 20.1402 5.6459C19.9328 5.72685 19.7475 5.85592 19.5998 6.02248L17.3825 8.52115L17.9131 6.54915C17.9587 6.38001 17.9704 6.20355 17.9477 6.02986C17.9251 5.85618 17.8684 5.68865 17.781 5.53686C17.6045 5.2303 17.3134 5.00642 16.9718 4.91448C16.6302 4.82254 16.2661 4.87007 15.9595 5.0466C15.6529 5.22313 15.4291 5.51422 15.3371 5.85582L14.7945 7.87848C14.3069 7.47553 13.7582 7.15282 13.1691 6.92248L14.6385 5.45315C14.7623 5.32936 14.8605 5.18239 14.9274 5.02065C14.9944 4.85891 15.0289 4.68555 15.0289 4.51048C15.0289 4.33541 14.9944 4.16206 14.9274 4.00032C14.8605 3.83857 14.7623 3.69161 14.6385 3.56782C14.5147 3.44402 14.3677 3.34583 14.206 3.27883C14.0442 3.21183 13.8709 3.17735 13.6958 3.17735C13.5207 3.17735 13.3474 3.21183 13.1856 3.27883C13.0239 3.34583 12.8769 3.44402 12.7531 3.56782L11.3051 5.01582L12.3625 1.84382C12.432 1.6329 12.4506 1.40849 12.4166 1.18901C12.3826 0.969534 12.297 0.761257 12.1668 0.581287C12.0367 0.401317 11.8657 0.254789 11.6679 0.153739C11.4701 0.052689 11.2512 0 11.0291 0C10.807 0 10.5881 0.052689 10.3903 0.153739C10.1926 0.254789 10.0216 0.401317 9.89143 0.581287C9.76129 0.761257 9.6757 0.969534 9.64169 1.18901C9.60768 1.40849 9.62622 1.6329 9.69579 1.84382L10.7531 5.01582L9.30513 3.56782C9.05512 3.31781 8.71603 3.17735 8.36246 3.17735C8.00889 3.17735 7.66981 3.31781 7.41979 3.56782C7.16978 3.81783 7.02933 4.15691 7.02933 4.51048C7.02933 4.86405 7.16978 5.20314 7.41979 5.45315L8.88913 6.92248C8.30043 7.15365 7.7519 7.47629 7.26379 7.87848L6.72379 5.85848C6.681 5.68676 6.60444 5.52528 6.49859 5.38345C6.39274 5.24162 6.25972 5.12228 6.10727 5.03239C5.95483 4.9425 5.78601 4.88386 5.61067 4.85989C5.43533 4.83591 5.25697 4.84708 5.08599 4.89275C4.91501 4.93841 4.75483 5.01766 4.61479 5.12587C4.47475 5.23407 4.35766 5.36908 4.27033 5.52301C4.18301 5.67693 4.1272 5.8467 4.10616 6.02242C4.08512 6.19814 4.09927 6.37629 4.14779 6.54648L4.67579 8.52648L2.45979 6.02382C2.28608 5.82968 2.06196 5.6875 1.81232 5.61305C1.56268 5.53859 1.29729 5.53479 1.04562 5.60206C0.793946 5.66933 0.565844 5.80504 0.386642 5.99411C0.207439 6.18319 0.0841481 6.41824 0.0304608 6.67315C-0.125539 7.43315 0.365128 8.17715 1.12646 8.33315L4.39846 9.00382L2.42513 9.53182C2.11268 9.61544 1.84128 9.80979 1.66148 10.0787C1.48169 10.3475 1.40577 10.6726 1.44785 10.9933C1.48994 11.314 1.64716 11.6085 1.89024 11.8218C2.13332 12.0352 2.44568 12.153 2.76913 12.1532L3.11579 12.1078L5.12646 11.5691C5.06767 11.8796 5.03511 12.1945 5.02913 12.5105C5.02913 12.8331 5.07446 13.1438 5.12379 13.4531L3.11313 12.9145C2.94399 12.8691 2.76757 12.8575 2.59394 12.8804C2.42032 12.9032 2.2529 12.96 2.10123 13.0475C1.94956 13.1351 1.81662 13.2516 1.70999 13.3905C1.60336 13.5295 1.52514 13.688 1.47979 13.8572C1.43444 14.0263 1.42285 14.2027 1.44568 14.3763C1.46851 14.55 1.52532 14.7174 1.61285 14.869C1.70039 15.0207 1.81694 15.1537 1.95585 15.2603C2.09476 15.3669 2.25332 15.4451 2.42246 15.4905L4.39979 16.0198L1.12646 16.6891C0.870227 16.7406 0.633467 16.8626 0.44288 17.0415C0.252292 17.2203 0.115458 17.4488 0.0478068 17.7013C-0.0198442 17.9537 -0.0156212 18.22 0.0599999 18.4702C0.135621 18.7204 0.279633 18.9445 0.475794 19.1171C0.613773 19.2398 0.774587 19.334 0.94903 19.3945C1.12347 19.4549 1.30812 19.4803 1.49241 19.4693C1.67669 19.4583 1.85699 19.411 2.02299 19.3302C2.18898 19.2494 2.33742 19.1367 2.45979 18.9985L4.67979 16.4945L4.14913 18.4732C4.10376 18.6423 4.09215 18.8187 4.11497 18.9923C4.13779 19.166 4.19459 19.3334 4.28213 19.4851C4.36967 19.6368 4.48623 19.7697 4.62515 19.8763C4.76407 19.9829 4.92264 20.0612 5.09179 20.1065L5.43846 20.1518C5.73173 20.1516 6.01673 20.0546 6.24934 19.876C6.48194 19.6974 6.64917 19.4471 6.72513 19.1638L7.26646 17.1438C7.75446 17.5412 8.29446 17.8692 8.89313 18.0985L7.42113 19.5678C7.29734 19.6916 7.19914 19.8386 7.13214 20.0003C7.06514 20.1621 7.03066 20.3354 7.03066 20.5105C7.03066 20.6856 7.06514 20.8589 7.13214 21.0207C7.19914 21.1824 7.29734 21.3294 7.42113 21.4532C7.67114 21.7032 8.01023 21.8436 8.36379 21.8436C8.53886 21.8436 8.71222 21.8091 8.87396 21.7421C9.0357 21.6751 9.18267 21.5769 9.30646 21.4532L10.2478 20.5105H10.5838L9.69579 23.1758C9.62622 23.3867 9.60768 23.6111 9.64169 23.8306C9.6757 24.0501 9.76129 24.2584 9.89143 24.4383C10.0216 24.6183 10.1926 24.7648 10.3903 24.8659C10.5881 24.9669 10.807 25.0196 11.0291 25.0196C11.2512 25.0196 11.4701 24.9669 11.6679 24.8659C11.8657 24.7648 12.0367 24.6183 12.1668 24.4383C12.297 24.2584 12.3826 24.0501 12.4166 23.8306C12.4506 23.6111 12.432 23.3867 12.3625 23.1758L11.4745 20.5105H11.8105L12.7531 21.4532C13.0031 21.7032 13.3422 21.8436 13.6958 21.8436C14.0494 21.8436 14.3885 21.7032 14.6385 21.4532C14.8885 21.2031 15.0289 20.8641 15.0289 20.5105C15.0289 20.1569 14.8885 19.8178 14.6385 19.5678L13.1691 18.0972C13.7589 17.8673 14.3081 17.5446 14.7958 17.1411L15.3371 19.1638C15.4131 19.4471 15.5803 19.6974 15.8129 19.876C16.0455 20.0546 16.3305 20.1516 16.6238 20.1518L16.9705 20.1065C17.1396 20.0612 17.2982 19.9829 17.4371 19.8763C17.576 19.7697 17.6926 19.6368 17.7801 19.4851C17.8677 19.3334 17.9245 19.166 17.9473 18.9923C17.9701 18.8187 17.9585 18.6423 17.9131 18.4732L17.3838 16.4998L19.5998 18.9985C19.7475 19.165 19.9328 19.2941 20.1402 19.3751C20.3476 19.456 20.5713 19.4865 20.7928 19.4641C21.0143 19.4416 21.2273 19.3668 21.4143 19.2459C21.6013 19.125 21.7568 18.9614 21.8681 18.7686C21.9795 18.5758 22.0434 18.3592 22.0546 18.1369C22.0659 17.9145 22.0241 17.6926 21.9328 17.4896C21.8415 17.2865 21.7033 17.108 21.5294 16.9689C21.3556 16.8297 21.1513 16.7338 20.9331 16.6891ZM11.0291 15.8438C9.19046 15.8438 7.69579 14.3491 7.69579 12.5105C7.69579 10.6718 9.19046 9.17715 11.0291 9.17715C12.8678 9.17715 14.3625 10.6718 14.3625 12.5105C14.3625 14.3491 12.8678 15.8438 11.0291 15.8438Z" fill="#A4CCCC"/>
</svg>
