<svg width="27" height="26" viewBox="0 0 27 26" fill="none" xmlns="http://www.w3.org/2000/svg">
<path d="M10.7425 13.6667C10.7425 15.3235 8.63617 16.6667 6.03792 16.6667C3.43967 16.6667 1.33337 15.3235 1.33337 13.6667C1.33337 12.0098 3.43967 10.6667 6.03792 10.6667C8.63617 10.6667 10.7425 12.0098 10.7425 13.6667Z" fill="#D9D9D9"/>
<path d="M24.3334 12.6667C24.3334 15.4281 21.993 17.6667 19.1061 17.6667C16.2192 17.6667 13.8788 15.4281 13.8788 12.6667C13.8788 9.90526 16.2192 7.66669 19.1061 7.66669C21.993 7.66669 24.3334 9.90526 24.3334 12.6667Z" fill="#D9D9D9"/>
<path d="M19.1061 10.1667C19.1061 14.3088 15.8296 17.6667 11.7879 17.6667C7.7462 17.6667 4.46974 14.3088 4.46974 10.1667C4.46974 6.02455 7.7462 2.66669 11.7879 2.66669C15.8296 2.66669 19.1061 6.02455 19.1061 10.1667Z" fill="#D9D9D9"/>
<path d="M8.1853 18.7347L14.1853 13.3333L12.1853 18L16.1853 19.9333L10.1853 25.3333L12.1853 20.6667L8.1853 18.7347Z" fill="#F9AB37"/>
<path d="M20 18.6667C19.6464 18.6667 19.3072 18.5262 19.0572 18.2762C18.8071 18.0261 18.6667 17.687 18.6667 17.3333C18.6667 16.9797 18.8071 16.6406 19.0572 16.3905C19.3072 16.1405 19.6464 16 20 16C22.2053 16 24 14.2053 24 12C24 9.79468 22.2053 8.00001 20 8.00001C19.6827 8.00001 19.3387 8.05601 18.916 8.17468L17.488 8.57601L17.24 7.11201C17.0357 5.86997 16.3965 4.74098 15.4367 3.92669C14.4768 3.11239 13.2587 2.6658 12 2.66668C11.2088 2.66788 10.4278 2.84487 9.71343 3.18484C8.99903 3.52482 8.36911 4.01929 7.8692 4.6325C7.36929 5.24572 7.01188 5.96235 6.82282 6.7306C6.63376 7.49884 6.61777 8.2995 6.776 9.07468L7.12267 10.728L5.208 10.6587C3.86133 10.6667 2.66667 11.8627 2.66667 13.3333C2.66667 14.804 3.86133 16 5.33333 16C5.68696 16 6.02609 16.1405 6.27614 16.3905C6.52619 16.6406 6.66667 16.9797 6.66667 17.3333C6.66667 17.687 6.52619 18.0261 6.27614 18.2762C6.02609 18.5262 5.68696 18.6667 5.33333 18.6667C2.39333 18.6667 0 16.2747 0 13.3333C0.00145237 12.1508 0.395206 11.0021 1.11955 10.0674C1.8439 9.13263 2.85791 8.46461 4.00267 8.16801L4 8.00001C4 3.58801 7.588 1.18837e-05 12 1.18837e-05C13.6565 -0.00285045 15.2726 0.511426 16.6229 1.4711C17.9731 2.43076 18.9901 3.78796 19.532 5.35335C23.432 5.03201 26.6667 8.16934 26.6667 12C26.6667 15.676 23.676 18.6667 20 18.6667Z" fill="#959595"/>
</svg>
